# xmcd
#
# Track frame offsets:
#	150
#	13096
#	26343
#	41429
#	56516
#	70042
#	83233
#	96927
#	110341
#	121749
#	134551
#	148021
#	160990
#	175575
#	189714
#
# Disc length: 2712 seconds
#
# Revision: 1
# Processed by: cddbd v1.5.2PL0 Copyright (c) Steve Scherf et al.
# Submitted via: audiograbber 1.83.01
#
DISCID=c50a960f
DTITLE=Buddy Williams - The Last Outback Entertainer
DYEAR=1900
DGENRE=Country
TTITLE0=Give a Little Credit to Your Dad
TTITLE1=The Orphan's Lament
TTITLE2=Dreamin' of my Mother
TTITLE3=There's an Empty Bunk in the Bunkhouse
TTITLE4=The Newsboy's Message
TTITLE5=Can a Black Sheep be Forgiven
TTITLE6=Maple on the Hill
TTITLE7=The Face on the Bar Room Floor
TTITLE8=What a Pal My Mother Might Have Been
TTITLE9=My Pretty Quadroon
TTITLE10=A Mother's Plea
TTITLE11=The Bushman's Redeo
TTITLE12=Riding Down the Valley
TTITLE13=The Mountain Barbeque
TTITLE14=The Orphan and His Dog
EXTD=Disc 1
EXTT0=
EXTT1=
EXTT2=
EXTT3=
EXTT4=
EXTT5=
EXTT6=
EXTT7=
EXTT8=
EXTT9=
EXTT10=
EXTT11=
EXTT12=
EXTT13=
EXTT14=
PLAYORDER=
